<svg width="18" height="18" viewBox="0 0 18 18" fill="none" xmlns="http://www.w3.org/2000/svg">
<path fill-rule="evenodd" clip-rule="evenodd" d="M5.41256 3.71826C5.89994 3.71826 6.34289 3.75992 6.74557 3.84878C7.14616 3.93904 7.48844 4.07789 7.77656 4.27229C8.06121 4.46669 8.28546 4.72357 8.44306 5.04988C8.59928 5.37618 8.67912 5.77886 8.67912 6.25097C8.67912 6.76473 8.56109 7.19518 8.32712 7.54231C8.09246 7.88945 7.74601 8.16716 7.28432 8.38933C7.91333 8.56984 8.3785 8.8892 8.68814 9.34048C8.99918 9.7987 9.14983 10.3472 9.14983 10.979C9.14983 11.4997 9.05958 11.944 8.86518 12.3189C8.67078 12.7008 8.40002 13.0132 8.05983 13.2562C7.72657 13.4978 7.33084 13.6727 6.90039 13.7887C6.47688 13.9032 6.03116 13.965 5.57433 13.965H0.595703V3.72312H5.41256V3.71826ZM12.3566 12.1619C12.6621 12.4591 13.1016 12.6083 13.6716 12.6083C14.0812 12.6083 14.4353 12.5056 14.7338 12.298C15.0282 12.0967 15.2059 11.8745 15.2754 11.6454H17.0721C16.7923 12.5341 16.3445 13.1728 15.753 13.5546C15.1629 13.9434 14.445 14.1309 13.6147 14.1309C13.0336 14.1309 12.5149 14.0406 12.0373 13.8532C11.57 13.6657 11.1764 13.4019 10.8431 13.0617C10.521 12.7215 10.2717 12.3119 10.0954 11.8328C9.91974 11.3538 9.83643 10.8261 9.83643 10.2568C9.83643 9.69934 9.93016 9.18766 10.1162 8.70861C10.3037 8.22262 10.5633 7.81995 10.8938 7.46587C11.2375 7.11179 11.6318 6.84449 12.0991 6.63691C12.5663 6.42932 13.071 6.33629 13.6403 6.33629C14.2721 6.33629 14.8137 6.45015 15.2927 6.69939C15.7579 6.93544 16.1397 7.26869 16.4452 7.67137C16.7507 8.07821 16.9659 8.54615 17.0978 9.0738C17.2297 9.59451 17.2714 10.143 17.2436 10.7262H11.9047C11.9047 11.3094 12.0991 11.8592 12.3976 12.1598L12.3421 12.1807L12.3566 12.1619ZM5.24739 12.1968C5.46747 12.1968 5.67784 12.176 5.8764 12.1323C6.07774 12.0906 6.25686 12.0177 6.40613 11.924C6.55193 11.8303 6.6769 11.6963 6.76715 11.5192C6.85741 11.3526 6.89906 11.1235 6.89906 10.8527C6.89906 10.332 6.74632 9.95712 6.45473 9.72801C6.15619 9.50584 5.7674 9.39475 5.28141 9.39475H2.84521V12.2066H5.24739V12.1857V12.1968ZM14.6942 8.27399C14.4498 8.00669 14.0416 7.86298 13.5438 7.86298C13.2189 7.86298 12.9502 7.91435 12.7343 8.02822C12.5246 8.13236 12.3524 8.27121 12.2205 8.43784C12.0886 8.60446 12.0005 8.77109 11.9484 8.95854C11.8963 9.13905 11.8651 9.30568 11.8547 9.45147H15.1608C15.1122 8.93077 14.9317 8.54892 14.6887 8.27815V8.2851L14.6942 8.27399ZM5.12225 7.84706C5.52076 7.84706 5.85123 7.75403 6.11158 7.56102C6.37124 7.37357 6.49621 7.06115 6.49621 6.63209C6.49621 6.39326 6.44761 6.19817 6.37124 6.04473C6.28099 5.89199 6.16296 5.77397 6.02411 5.68926C5.87831 5.60317 5.71168 5.54347 5.52423 5.51084C5.33678 5.47404 5.13544 5.45946 4.94104 5.45946H2.83809V7.84776L5.12225 7.84706ZM11.4389 4.40493H15.5823V5.4144H11.4389V4.39659V4.40493Z" fill="#ED2E38"/>
</svg>
