<svg width="19" height="18" viewBox="0 0 19 18" fill="none" xmlns="http://www.w3.org/2000/svg">
<path fill-rule="evenodd" clip-rule="evenodd" d="M13.8424 16.0198C13.4156 16.2652 12.9646 16.4732 12.4939 16.6393C11.642 16.94 10.7255 17.1035 9.77076 17.1035C7.8943 17.1035 6.16541 16.4717 4.78524 15.4092C4.7636 15.3925 4.74204 15.3757 4.72057 15.3589C4.33462 15.0556 3.97662 14.7183 3.6511 14.3516C2.36927 12.9074 1.59082 11.0064 1.59082 8.92359C1.59082 8.82436 1.59259 8.72553 1.59609 8.62716C1.59609 8.62716 1.59609 8.62716 1.59609 8.62716C1.61413 8.1207 1.67821 7.62597 1.78427 7.14703C1.78427 7.14703 1.78427 7.14703 1.78427 7.14703C2.29711 4.83124 3.79149 2.88449 5.80857 1.76559C5.82956 1.75394 5.85061 1.74239 5.87171 1.73093C6.30337 1.49643 6.7585 1.29967 7.23268 1.14505C8.03169 0.884508 8.88477 0.743652 9.77076 0.743652C11.7472 0.743652 13.56 1.44464 14.974 2.61155C15.3348 2.90935 15.6697 3.23749 15.9747 3.59207C17.2063 5.02389 17.9507 6.8868 17.9507 8.92359C17.9507 9.04712 17.948 9.17001 17.9425 9.2922C17.9247 9.69349 17.878 10.0873 17.8044 10.4715C17.3498 12.845 15.8694 14.8542 13.8424 16.0198ZM12.2539 15.1405C11.4861 15.4474 10.6481 15.6163 9.77076 15.6163C8.16149 15.6163 6.68488 15.0483 5.53046 14.1019C6.78468 12.2413 8.6458 10.8236 10.83 10.1328C11.45 11.7372 11.9297 13.4114 12.2539 15.1405ZM16.3796 9.98585C16.0896 11.8044 15.067 13.3786 13.624 14.3964C13.3006 12.8119 12.8529 11.2726 12.2913 9.78918C12.8027 9.7089 13.3268 9.66722 13.8607 9.66722C14.7306 9.66722 15.5747 9.77787 16.3796 9.98585ZM16.4484 8.47158C16.3531 7.04233 15.8091 5.73589 14.956 4.69185C13.8664 5.75597 12.6141 6.65413 11.2398 7.34545C11.4048 7.68647 11.5636 8.03107 11.7161 8.37912C12.4109 8.24836 13.1278 8.17996 13.8607 8.17996C14.7504 8.17996 15.6166 8.28077 16.4484 8.47158ZM13.8932 3.6509C12.9145 4.60201 11.7909 5.40477 10.5586 6.02287C9.86843 4.76048 9.09046 3.55293 8.23293 2.40844C8.7267 2.29233 9.24156 2.23091 9.77076 2.23091C11.3258 2.23091 12.7569 2.76124 13.8932 3.6509ZM6.76857 2.94042C5.02621 3.8164 3.71917 5.43108 3.25854 7.37335C3.68851 7.41501 4.12443 7.43633 4.56533 7.43633C6.18995 7.43633 7.74697 7.14689 9.18764 6.61678C8.47463 5.32722 7.66502 4.09851 6.76857 2.94042ZM3.07848 8.8502C3.07821 8.87463 3.07808 8.89909 3.07808 8.92359C3.07808 10.4646 3.59892 11.884 4.47416 13.0153C5.88453 11.0403 7.90272 9.5291 10.2555 8.755C10.1338 8.48328 10.0079 8.2138 9.878 7.94664C8.22814 8.57781 6.43711 8.92359 4.56533 8.92359C4.06352 8.92359 3.56751 8.89874 3.07848 8.8502Z" fill="#ED2E38"/>
</svg>
