<svg width="19" height="18" viewBox="0 0 19 18" fill="none" xmlns="http://www.w3.org/2000/svg">
<path fill-rule="evenodd" clip-rule="evenodd" d="M1.59082 8.92359C1.59082 4.40593 5.2531 0.743652 9.77076 0.743652C14.2884 0.743652 17.9507 4.40593 17.9507 8.92359C17.9507 13.4412 14.2884 17.1035 9.77076 17.1035C5.2531 17.1035 1.59082 13.4412 1.59082 8.92359ZM4.46023 8.34811L10.6614 5.69936C11.2736 5.42347 13.3495 4.54058 13.3495 4.54058C13.3495 4.54058 14.3077 4.15434 14.2278 5.09236C14.2085 5.37223 14.0915 6.15916 13.9474 7.12765C13.8927 7.49561 13.834 7.89033 13.7754 8.29282L13.11 12.6245C13.11 12.6245 13.0568 13.2591 12.6036 13.3695C12.1504 13.4798 11.4059 12.9832 11.2729 12.8728C11.2498 12.8549 11.1426 12.7822 10.9818 12.6733C10.4022 12.2807 9.12654 11.4167 8.58481 10.9415C8.3985 10.776 8.18562 10.4448 8.61144 10.0586C9.56959 9.14811 10.7141 8.01685 11.4059 7.29951C11.7253 6.96841 12.0447 6.19586 10.714 7.13404L6.96135 9.75519C6.96135 9.75519 6.53545 10.0311 5.73707 9.78279C4.93869 9.5345 4.00717 9.2034 4.00717 9.2034C4.00717 9.2034 3.36902 8.78948 4.46023 8.34811Z" fill="#ED2E38"/>
</svg>
