<svg width="18" height="18" viewBox="0 0 18 18" fill="none" xmlns="http://www.w3.org/2000/svg">
<path fill-rule="evenodd" clip-rule="evenodd" d="M1.89566 1.89566C0.743652 3.04085 0.743652 4.89497 0.743652 8.59639V9.25079C0.743652 12.9522 0.743652 14.8063 1.89566 15.9515C3.04085 17.1035 4.89497 17.1035 8.59639 17.1035H9.25079C12.9522 17.1035 14.8063 17.1035 15.9515 15.9515C17.1035 14.8063 17.1035 12.9522 17.1035 9.25079V8.59639C17.1035 4.89497 17.1035 3.04085 15.9515 1.89566C14.8063 0.743652 12.9522 0.743652 9.25079 0.743652H8.59639C4.89497 0.743652 3.04085 0.743652 1.89566 1.89566ZM3.50538 5.71993C3.59399 9.9735 5.72078 12.5297 9.44946 12.5297H9.66078V10.0962C10.3185 10.179 10.9371 10.4541 11.4391 10.887C11.9411 11.3199 12.3042 11.8914 12.4829 12.5297H14.4188C14.2198 11.7948 13.8672 11.1104 13.3842 10.5217C12.9013 9.933 12.299 9.45343 11.6171 9.1146C12.228 8.74379 12.7558 8.25091 13.1675 7.6668C13.5792 7.08269 13.8659 6.41992 14.0098 5.71993H12.2511C11.8694 7.06962 10.7378 8.29661 9.66078 8.41249V5.71993H7.90209V10.437C6.81143 10.1644 5.43448 8.84194 5.37313 5.71993H3.50538Z" fill="#ED2E38"/>
</svg>
