<svg width="712" height="138" viewBox="0 0 712 138" fill="none" xmlns="http://www.w3.org/2000/svg">
<path d="M120 132.5C88.8333 135.833 61.3333 137.5 37.5 137.5C26.1667 137.5 17.0833 134.083 10.25 127.25C3.41667 120.417 0 111.333 0 100V42.5C0 30 3.5 20.25 10.5 13.25C17.6667 6.08334 27.5 2.5 40 2.5H120V36.25H53.75C47.0833 36.25 43.75 39.5833 43.75 46.25V95C43.75 97.5 44.5833 99.5833 46.25 101.25C47.9167 102.917 50 103.75 52.5 103.75C67.5 103.75 90 102.5 120 100V132.5ZM192.451 102.5C201.285 102.5 211.285 100.833 222.451 97.5V82.5H186.201C183.701 82.5 181.618 83.3333 179.951 85C178.285 86.6667 177.451 88.75 177.451 91.25V93.75C177.451 96.25 178.285 98.3333 179.951 100C181.618 101.667 183.701 102.5 186.201 102.5H192.451ZM146.201 5C176.701 1.66667 204.201 0 228.701 0C240.035 0 249.118 3.41667 255.951 10.25C262.785 17.0833 266.201 26.1667 266.201 37.5V135H227.451L224.951 122.5C217.118 127.667 209.035 131.5 200.701 134C192.535 136.333 185.618 137.5 179.951 137.5H171.201C159.868 137.5 150.785 134.083 143.951 127.25C137.118 120.417 133.701 111.333 133.701 100V88.75C133.701 77.4167 137.118 68.3333 143.951 61.5C150.785 54.6667 159.868 51.25 171.201 51.25H222.451V41.25C222.451 38.75 221.618 36.6667 219.951 35C218.285 33.3333 216.201 32.5 213.701 32.5C202.868 32.5 190.868 33 177.701 34C164.701 35 154.201 35.75 146.201 36.25V5ZM283.633 100C317.466 102.5 344.133 103.75 363.633 103.75C366.133 103.75 368.216 102.917 369.883 101.25C371.549 99.5833 372.383 97.5 372.383 95V86.25H318.633C307.299 86.25 298.216 82.8333 291.383 76C284.549 69.1667 281.133 60.0833 281.133 48.75V40C281.133 28.6667 284.549 19.5833 291.383 12.75C298.216 5.91667 307.299 2.5 318.633 2.5H403.633V35H333.633C331.133 35 329.049 35.8333 327.383 37.5C325.716 39.1667 324.883 41.25 324.883 43.75C324.883 46.25 325.716 48.3333 327.383 50C329.049 51.6667 331.133 52.5 333.633 52.5H378.633C389.966 52.5 399.049 55.9167 405.883 62.75C412.716 69.5833 416.133 78.6667 416.133 90V100C416.133 111.333 412.716 120.417 405.883 127.25C399.049 134.083 389.966 137.5 378.633 137.5C349.133 137.5 317.466 135.833 283.633 132.5V100ZM484.902 31.25C478.236 31.25 474.902 34.5833 474.902 41.25V55H517.402V41.25C517.402 34.5833 514.069 31.25 507.402 31.25H484.902ZM556.152 132.5C523.986 135.833 494.819 137.5 468.652 137.5C457.319 137.5 448.236 134.083 441.402 127.25C434.569 120.417 431.152 111.333 431.152 100V40C431.152 27.5 434.652 17.75 441.652 10.75C448.819 3.58334 458.652 0 471.152 0H521.152C533.652 0 543.402 3.58334 550.402 10.75C557.569 17.75 561.152 27.5 561.152 40V86.25H474.902V96.25C474.902 98.75 475.736 100.833 477.402 102.5C479.069 104.167 481.152 105 483.652 105C500.152 105 524.319 103.75 556.152 101.25V132.5ZM578.555 100C612.388 102.5 639.055 103.75 658.555 103.75C661.055 103.75 663.138 102.917 664.805 101.25C666.471 99.5833 667.305 97.5 667.305 95V86.25H613.555C602.221 86.25 593.138 82.8333 586.305 76C579.471 69.1667 576.055 60.0833 576.055 48.75V40C576.055 28.6667 579.471 19.5833 586.305 12.75C593.138 5.91667 602.221 2.5 613.555 2.5H698.555V35H628.555C626.055 35 623.971 35.8333 622.305 37.5C620.638 39.1667 619.805 41.25 619.805 43.75C619.805 46.25 620.638 48.3333 622.305 50C623.971 51.6667 626.055 52.5 628.555 52.5H673.555C684.888 52.5 693.971 55.9167 700.805 62.75C707.638 69.5833 711.055 78.6667 711.055 90V100C711.055 111.333 707.638 120.417 700.805 127.25C693.971 134.083 684.888 137.5 673.555 137.5C644.055 137.5 612.388 135.833 578.555 132.5V100Z" fill="#ED2E38" fill-opacity="0.2"/>
</svg>
