<svg width="34" height="68" viewBox="0 0 34 68" fill="none" xmlns="http://www.w3.org/2000/svg">
<path d="M-34 17.5564H-26.7421V9.19855H26.7421V17.5564H34V0H-34V17.5564ZM3.70201 68H-3.70201V65.4778C-3.70201 64.4393 -3.99427 63.648 -4.5788 63.0545C-5.16332 62.5105 -6.04011 62.2138 -7.20917 62.2138H-22.1633C-26.0602 62.2138 -28.9828 61.1258 -30.9799 58.9993C-32.9771 56.8727 -34 53.7076 -34 49.6029V45.8938H-26.7421V47.4269C-26.7421 49.3062 -26.255 50.6909 -25.3295 51.5811C-24.404 52.4713 -23.0401 52.9658 -21.2378 52.9658H-7.45272C-5.21203 52.9658 -3.55587 53.312 -2.43553 53.9549C-1.31519 54.5978 -0.535816 55.7353 -0.0487099 57.2189C0.438396 55.6858 1.21777 54.5978 2.33811 53.9549C3.45845 53.312 5.11461 52.9658 7.3553 52.9658H21.1404C22.9427 52.9658 24.3066 52.5207 25.2321 51.5811C26.1576 50.6909 26.6447 49.3062 26.6447 47.4269V45.8938H33.9026V49.6029C33.9026 53.7571 32.8797 56.8727 30.8825 58.9993C28.8854 61.1258 25.914 62.2138 22.0659 62.2138H7.11175C5.94269 62.2138 5.06591 62.5105 4.48138 63.0545C3.89685 63.5985 3.60458 64.4393 3.60458 65.4778V68H3.70201ZM-8.18338 30.6618C-8.18338 32.3927 -8.7192 33.8269 -9.83954 34.9644C-10.9599 36.1018 -12.4212 36.6458 -14.1748 36.6458C-14.9542 36.6458 -15.7822 36.5469 -16.6103 36.2996C-17.4384 36.1018 -18.7536 35.6073 -20.4097 34.9149L-30.639 31.1564V25.1724L-19.533 28.1396C-19.0946 27.0516 -18.4126 26.2109 -17.4871 25.6175C-16.5616 25.024 -15.4413 24.6778 -14.1748 24.6778C-12.3725 24.6778 -10.9112 25.2218 -9.83954 26.3593C-8.7192 27.4967 -8.18338 28.9309 -8.18338 30.6124V30.6618ZM7.45272 30.6124C7.45272 28.9309 8.03725 27.4967 9.15759 26.3098C10.2779 25.1229 11.7393 24.5295 13.4928 24.5295C15.2951 24.5295 16.7565 25.1229 17.8281 26.2604C18.9484 27.3978 19.4842 28.832 19.4842 30.5629C19.4842 32.2938 18.9484 33.728 17.8281 34.8655C16.7077 36.0029 15.2464 36.5964 13.4928 36.5964C11.7393 36.5964 10.3266 36.0029 9.15759 34.816C8.03725 33.6291 7.45272 32.1949 7.45272 30.5629V30.6124Z" fill="white"/>
</svg>
