<svg width="17" height="32" viewBox="0 0 17 32" fill="none" xmlns="http://www.w3.org/2000/svg">
<path d="M-17 8.26451H-13.3711V4.33278H13.3711V8.26451H17V0.0055542H-17V8.26451ZM1.851 31.9945H-1.851V30.808C-1.851 30.3194 -1.99713 29.9472 -2.2894 29.668C-2.58166 29.4121 -3.02006 29.2725 -3.60458 29.2725H-11.0817C-13.0301 29.2725 -14.4914 28.7607 -15.49 27.7603C-16.4885 26.7599 -17 25.271 -17 23.34V21.5952H-13.3711V22.3164C-13.3711 23.2004 -13.1275 23.8518 -12.6648 24.2706C-12.202 24.6894 -11.5201 24.922 -10.6189 24.922H-3.72636C-2.60602 24.922 -1.77794 25.0849 -1.21776 25.3873C-0.657593 25.6898 -0.267908 26.2248 -0.0243549 26.9228C0.219198 26.2016 0.608883 25.6898 1.16906 25.3873C1.72923 25.0849 2.55731 24.922 3.67765 24.922H10.5702C11.4713 24.922 12.1533 24.7126 12.616 24.2706C13.0788 23.8518 13.3223 23.2004 13.3223 22.3164V21.5952H16.9513V23.34C16.9513 25.2943 16.4398 26.7599 15.4413 27.7603C14.4427 28.7607 12.957 29.2725 11.033 29.2725H3.55587C2.97135 29.2725 2.53295 29.4121 2.24069 29.668C1.94843 29.9239 1.80229 30.3194 1.80229 30.808V31.9945H1.851ZM-4.09169 14.4297C-4.09169 15.2439 -4.3596 15.9186 -4.91977 16.4537C-5.47994 16.9888 -6.2106 17.2447 -7.08739 17.2447C-7.47708 17.2447 -7.89112 17.1982 -8.30516 17.0818C-8.7192 16.9888 -9.37679 16.7561 -10.2049 16.4304L-15.3195 14.6623V11.8473L-9.76648 13.2432C-9.54728 12.7313 -9.2063 12.3358 -8.74355 12.0567C-8.2808 11.7775 -7.72063 11.6146 -7.08739 11.6146C-6.18625 11.6146 -5.45559 11.8705 -4.91977 12.4056C-4.3596 12.9407 -4.09169 13.6154 -4.09169 14.4064V14.4297ZM3.72636 14.4064C3.72636 13.6154 4.01863 12.9407 4.5788 12.3824C5.13897 11.824 5.86963 11.5448 6.74642 11.5448C7.64757 11.5448 8.37823 11.824 8.91404 12.3591C9.47421 12.8942 9.74212 13.5689 9.74212 14.3831C9.74212 15.1974 9.47421 15.8721 8.91404 16.4072C8.35387 16.9422 7.62321 17.2214 6.74642 17.2214C5.86963 17.2214 5.16332 16.9422 4.5788 16.3839C4.01863 15.8255 3.72636 15.1509 3.72636 14.3831V14.4064Z" fill="black"/>
</svg>
