<svg width="30" height="30" viewBox="0 0 30 30" fill="none" xmlns="http://www.w3.org/2000/svg">
<rect width="30" height="30" rx="11" fill="black"/>
<path d="M11.4143 9.05658C11.9842 9.05658 12.5108 9.09714 12.9939 9.21881C13.477 9.29993 13.8732 9.46723 14.2261 9.67002C14.5789 9.87281 14.8394 10.1618 15.0186 10.5319C15.1923 10.902 15.2846 11.3532 15.2846 11.8449C15.2846 12.4178 15.1543 12.9096 14.8449 13.2797C14.5789 13.6498 14.1446 13.9793 13.6127 14.2227C14.3618 14.4254 14.9317 14.7955 15.2791 15.2873C15.6265 15.7791 15.8491 16.3925 15.8491 17.0921C15.8491 17.665 15.7188 18.1568 15.4962 18.5674C15.2791 18.9781 14.9263 19.3482 14.53 19.5915C14.1338 19.8399 13.6507 20.0427 13.1241 20.1644C12.5976 20.2861 12.0711 20.3672 11.5445 20.3672L5.6604 20.3773V9.05658H11.4143ZM11.0614 13.6498C11.5445 13.6498 11.9408 13.5281 12.2448 13.3202C12.5488 13.1124 12.6845 12.7474 12.6845 12.2962C12.6845 12.0477 12.641 11.8044 12.5542 11.6422C12.4673 11.4799 12.3371 11.3532 12.1579 11.2315C11.9842 11.1504 11.8051 11.0693 11.588 11.0287C11.3708 10.9882 11.1483 10.9882 10.8877 10.9882H8.34192V13.6548C8.34192 13.6498 11.0614 13.6498 11.0614 13.6498ZM11.1917 18.4914C11.4577 18.4914 11.7182 18.4508 11.9408 18.4103C12.1579 18.3697 12.3805 18.2886 12.5542 18.1619C12.7279 18.0351 12.8636 17.9134 12.9939 17.7106C13.0807 17.5079 13.1676 17.2594 13.1676 16.9705C13.1676 16.3976 12.9939 15.9869 12.641 15.698C12.2882 15.4495 11.8051 15.3279 11.2351 15.3279H8.34192V18.4863H11.1917V18.4914Z" fill="#ED2E38"/>
<path d="M19.6602 18.7471C19.9809 19.0745 20.4595 19.2357 21.096 19.2357C21.5351 19.2357 21.9347 19.1148 22.2554 18.9083C22.5761 18.6615 22.7735 18.4197 22.8524 18.1728H24.8062C24.4855 19.1501 24.007 19.8452 23.3705 20.2936C22.734 20.7016 21.9742 20.9434 21.0565 20.9434C20.42 20.9434 19.8575 20.8225 19.3395 20.6159C18.8214 20.4145 18.4218 20.1273 18.0616 19.7193C17.7014 19.3516 17.4251 18.9033 17.2623 18.3743C17.065 17.8454 16.9811 17.2762 16.9811 16.6213C16.9811 16.0118 17.06 15.4376 17.2623 14.9086C17.4646 14.3797 17.7409 13.9314 18.1011 13.5234C18.4612 13.1557 18.9004 12.8282 19.379 12.6267C19.897 12.4252 20.4151 12.2993 21.0565 12.2993C21.7374 12.2993 22.3344 12.4202 22.8524 12.7073C23.3705 12.9945 23.7701 13.3168 24.0908 13.8055C24.4115 14.2538 24.6484 14.7827 24.8112 15.3519C24.8901 15.9211 24.9296 16.4954 24.8901 17.1452H19.1027C19.1027 17.8102 19.3395 18.4197 19.6602 18.7471ZM22.1765 14.4654C21.8952 14.1782 21.4561 14.017 20.9381 14.017C20.5779 14.017 20.3016 14.0976 20.0598 14.2185C19.8181 14.3394 19.6602 14.5057 19.5023 14.6669C19.3444 14.828 19.2605 15.0346 19.2211 15.2361C19.1816 15.4376 19.1421 15.6038 19.1421 15.765H22.734C22.6551 15.1605 22.4528 14.7525 22.1765 14.4654ZM18.6635 10.1887H23.1337V11.2868H18.6635V10.1887Z" fill="#ED2E38"/>
</svg>
