<svg width="495" height="495" viewBox="0 0 495 495" fill="none" xmlns="http://www.w3.org/2000/svg">
<path d="M0 127.8H52.8331V66.96H442.167V127.8H495V0H0V127.8ZM274.448 495H220.552V476.64C220.552 469.08 218.424 463.32 214.169 459C209.914 455.04 203.532 452.88 195.021 452.88H86.164C57.7973 452.88 36.5222 444.96 21.9842 429.48C7.44628 414 0 390.96 0 361.08V334.08H52.8331V345.24C52.8331 358.92 56.3789 369 63.116 375.48C69.8532 381.96 79.7815 385.56 92.9011 385.56H193.249C209.559 385.56 221.615 388.08 229.771 392.76C237.926 397.44 243.6 405.72 247.145 416.52C250.691 405.36 256.365 397.44 264.52 392.76C272.676 388.08 284.731 385.56 301.042 385.56H401.39C414.509 385.56 424.438 382.32 431.175 375.48C437.912 369 441.458 358.92 441.458 345.24V334.08H494.291V361.08C494.291 391.32 486.845 414 472.307 429.48C457.769 444.96 436.139 452.88 408.127 452.88H299.269C290.759 452.88 284.377 455.04 280.122 459C275.867 462.96 273.739 469.08 273.739 476.64V495H274.448ZM187.93 223.2C187.93 235.8 184.029 246.24 175.874 254.52C167.718 262.8 157.081 266.76 144.316 266.76C138.643 266.76 132.615 266.04 126.587 264.24C120.559 262.8 110.985 259.2 98.9291 254.16L24.4663 226.8V183.24L105.312 204.84C108.503 196.92 113.467 190.8 120.204 186.48C126.941 182.16 135.097 179.64 144.316 179.64C157.436 179.64 168.073 183.6 175.874 191.88C184.029 200.16 187.93 210.6 187.93 222.84V223.2ZM301.751 222.84C301.751 210.6 306.006 200.16 314.162 191.52C322.317 182.88 332.955 178.56 345.72 178.56C358.84 178.56 369.477 182.88 377.278 191.16C385.433 199.44 389.334 209.88 389.334 222.48C389.334 235.08 385.433 245.52 377.278 253.8C369.123 262.08 358.485 266.4 345.72 266.4C332.955 266.4 322.672 262.08 314.162 253.44C306.006 244.8 301.751 234.36 301.751 222.48V222.84Z" fill="#ED2E38"/>
</svg>
