<svg width="425" height="557" viewBox="0 0 425 557" fill="none" xmlns="http://www.w3.org/2000/svg">
<path fill-rule="evenodd" clip-rule="evenodd" d="M254.414 536.251V556.904H315.768V536.251C315.768 527.747 318.222 520.863 323.13 516.409C328.039 511.954 335.401 509.524 345.218 509.524H425V494.5V483.5V475V465V456.5V445V433.799H347.263C328.448 433.799 314.541 436.633 305.133 441.898C295.726 447.162 289.181 456.071 285.091 468.624C281.001 456.476 274.456 447.162 265.049 441.898C255.641 436.633 241.734 433.799 222.919 433.799H107.165C92.0308 433.799 80.5781 429.749 72.8066 422.46C65.0351 415.171 60.9448 403.832 60.9448 388.444V375.891H0V406.262C0 439.873 8.58954 465.79 25.3596 483.203C42.1297 500.616 66.6712 509.524 99.3933 509.524H224.964C234.781 509.524 242.143 511.954 247.052 516.409C251.96 521.268 254.414 527.747 254.414 536.251ZM202.877 286.397C212.284 277.083 216.784 265.339 216.784 251.166V250.761C216.784 236.993 212.284 225.249 202.877 215.935C193.878 206.621 181.607 202.167 166.474 202.167C155.839 202.167 146.431 205.001 138.66 209.861C130.888 214.72 125.162 221.604 121.481 230.513L28.2228 206.216V255.215L114.118 285.992C128.025 291.661 139.069 295.71 146.022 297.33C152.976 299.355 159.929 300.165 166.474 300.165C181.198 300.165 193.469 295.71 202.877 286.397ZM362.397 215.53C353.036 225.201 348.13 236.876 348.081 250.555C348.081 250.489 348.081 250.423 348.081 250.356V250.761C348.081 250.692 348.081 250.624 348.081 250.555C348.13 263.836 353.036 275.511 362.397 285.182C372.213 294.901 384.075 299.76 398.8 299.76C408.679 299.76 417.454 297.573 425 293.321V282V253V223.5V207.238C417.604 203.087 408.831 200.952 398.8 200.952C384.075 200.952 371.804 205.811 362.397 215.53Z" fill="#ED2E38"/>
<path d="M0 143.854H60.9448V75.4173H370H424.5V48.5V24.5V0.0964355H370H0V143.854Z" fill="#ED2E38"/>
</svg>
