<svg width="1058" height="181" viewBox="0 0 1058 181" fill="none" xmlns="http://www.w3.org/2000/svg">
<path d="M2.5 143C36.3333 145.5 63 146.75 82.5 146.75C85 146.75 87.0833 145.917 88.75 144.25C90.4167 142.583 91.25 140.5 91.25 138V129.25H37.5C26.1667 129.25 17.0833 125.833 10.25 119C3.41667 112.167 0 103.083 0 91.75V83C0 71.6667 3.41667 62.5833 10.25 55.75C17.0833 48.9167 26.1667 45.5 37.5 45.5H122.5V78H52.5C50 78 47.9167 78.8333 46.25 80.5C44.5833 82.1667 43.75 84.25 43.75 86.75C43.75 89.25 44.5833 91.3333 46.25 93C47.9167 94.6667 50 95.5 52.5 95.5H97.5C108.833 95.5 117.917 98.9167 124.75 105.75C131.583 112.583 135 121.667 135 133V143C135 154.333 131.583 163.417 124.75 170.25C117.917 177.083 108.833 180.5 97.5 180.5C68 180.5 36.3333 178.833 2.5 175.5V143ZM203.77 74.25C197.103 74.25 193.77 77.5833 193.77 84.25V98H236.27V84.25C236.27 77.5833 232.936 74.25 226.27 74.25H203.77ZM275.02 175.5C242.853 178.833 213.686 180.5 187.52 180.5C176.186 180.5 167.103 177.083 160.27 170.25C153.436 163.417 150.02 154.333 150.02 143V83C150.02 70.5 153.52 60.75 160.52 53.75C167.686 46.5833 177.52 43 190.02 43H240.02C252.52 43 262.27 46.5833 269.27 53.75C276.436 60.75 280.02 70.5 280.02 83V129.25H193.77V139.25C193.77 141.75 194.603 143.833 196.27 145.5C197.936 147.167 200.02 148 202.52 148C219.02 148 243.186 146.75 275.02 144.25V175.5ZM378.672 81.75C368.172 81.75 357.339 84.25 346.172 89.25V178H302.422V45.5H341.172L343.672 61.75C358.005 49.25 373.005 43 388.672 43H399.922V81.75H378.672ZM506.162 45.5H552.412L502.412 178H452.412L402.412 45.5H448.662L477.412 135.5L506.162 45.5ZM617.432 50.5V178H573.682V84.25H554.932V50.5H617.432ZM573.682 0.5H617.432V35.5H573.682V0.5ZM760.01 175.5C728.843 178.833 701.343 180.5 677.51 180.5C666.176 180.5 657.093 177.083 650.26 170.25C643.426 163.417 640.01 154.333 640.01 143V85.5C640.01 73 643.51 63.25 650.51 56.25C657.676 49.0833 667.51 45.5 680.01 45.5H760.01V79.25H693.76C687.093 79.25 683.76 82.5833 683.76 89.25V138C683.76 140.5 684.593 142.583 686.26 144.25C687.926 145.917 690.01 146.75 692.51 146.75C707.51 146.75 730.01 145.5 760.01 143V175.5ZM831.211 74.25C824.544 74.25 821.211 77.5833 821.211 84.25V98H863.711V84.25C863.711 77.5833 860.378 74.25 853.711 74.25H831.211ZM902.461 175.5C870.294 178.833 841.128 180.5 814.961 180.5C803.628 180.5 794.544 177.083 787.711 170.25C780.878 163.417 777.461 154.333 777.461 143V83C777.461 70.5 780.961 60.75 787.961 53.75C795.128 46.5833 804.961 43 817.461 43H867.461C879.961 43 889.711 46.5833 896.711 53.75C903.878 60.75 907.461 70.5 907.461 83V129.25H821.211V139.25C821.211 141.75 822.044 143.833 823.711 145.5C825.378 147.167 827.461 148 829.961 148C846.461 148 870.628 146.75 902.461 144.25V175.5ZM924.863 143C958.697 145.5 985.363 146.75 1004.86 146.75C1007.36 146.75 1009.45 145.917 1011.11 144.25C1012.78 142.583 1013.61 140.5 1013.61 138V129.25H959.863C948.53 129.25 939.447 125.833 932.613 119C925.78 112.167 922.363 103.083 922.363 91.75V83C922.363 71.6667 925.78 62.5833 932.613 55.75C939.447 48.9167 948.53 45.5 959.863 45.5H1044.86V78H974.863C972.363 78 970.28 78.8333 968.613 80.5C966.947 82.1667 966.113 84.25 966.113 86.75C966.113 89.25 966.947 91.3333 968.613 93C970.28 94.6667 972.363 95.5 974.863 95.5H1019.86C1031.2 95.5 1040.28 98.9167 1047.11 105.75C1053.95 112.583 1057.36 121.667 1057.36 133V143C1057.36 154.333 1053.95 163.417 1047.11 170.25C1040.28 177.083 1031.2 180.5 1019.86 180.5C990.363 180.5 958.697 178.833 924.863 175.5V143Z" fill="#ED2E38" fill-opacity="0.2"/>
</svg>
