<svg width="1183" height="181" viewBox="0 0 1183 181" fill="none" xmlns="http://www.w3.org/2000/svg">
<path d="M2.5 143C36.3333 145.5 63 146.75 82.5 146.75C85 146.75 87.0833 145.917 88.75 144.25C90.4167 142.583 91.25 140.5 91.25 138V129.25H37.5C26.1667 129.25 17.0833 125.833 10.25 119C3.41667 112.167 3.53903e-07 103.083 3.53903e-07 91.75V83C3.53903e-07 71.6667 3.41667 62.5833 10.25 55.75C17.0833 48.9167 26.1667 45.5 37.5 45.5H122.5V78H52.5C50 78 47.9167 78.8333 46.25 80.5C44.5833 82.1667 43.75 84.25 43.75 86.75C43.75 89.25 44.5833 91.3333 46.25 93C47.9167 94.6667 50 95.5 52.5 95.5H97.5C108.833 95.5 117.917 98.9167 124.75 105.75C131.583 112.583 135 121.667 135 133V143C135 154.333 131.583 163.417 124.75 170.25C117.917 177.083 108.833 180.5 97.5 180.5C68 180.5 36.3333 178.833 2.5 175.5V143ZM287.52 140.5C287.52 153 283.936 162.833 276.77 170C269.77 177 260.02 180.5 247.52 180.5H190.02C177.52 180.5 167.686 177 160.52 170C153.52 162.833 150.02 153 150.02 140.5V83C150.02 70.5 153.52 60.75 160.52 53.75C167.686 46.5833 177.52 43 190.02 43H247.52C260.02 43 269.77 46.5833 276.77 53.75C283.936 60.75 287.52 70.5 287.52 83V140.5ZM243.77 86.75C243.77 80.0833 240.436 76.75 233.77 76.75H203.77C197.103 76.75 193.77 80.0833 193.77 86.75V136.75C193.77 143.417 197.103 146.75 203.77 146.75H233.77C240.436 146.75 243.77 143.417 243.77 136.75V86.75ZM377.49 178C366.324 179.667 355.657 180.5 345.49 180.5C335.49 180.5 327.074 177.083 320.24 170.25C313.407 163.417 309.99 154.333 309.99 143V2.99999H353.74V136.75C353.74 139.25 354.574 141.333 356.24 143C357.907 144.667 359.99 145.5 362.49 145.5H377.49V178ZM456.201 144.25C465.035 144.25 475.035 142.583 486.201 139.25V45.5H529.951V178H491.201L488.701 165.5C480.868 170.667 472.785 174.5 464.451 177C456.285 179.333 449.368 180.5 443.701 180.5H432.451C421.118 180.5 412.035 177.083 405.201 170.25C398.368 163.417 394.951 154.333 394.951 143V45.5H438.701V135.5C438.701 138 439.535 140.083 441.201 141.75C442.868 143.417 444.951 144.25 447.451 144.25H456.201ZM647.363 178C631.197 179.667 615.363 180.5 599.863 180.5C588.53 180.5 579.447 177.083 572.613 170.25C565.78 163.417 562.363 154.333 562.363 143V79.25H547.363V45.5H562.363L567.363 15.5H606.113V45.5H637.363V79.25H606.113V136.75C606.113 139.25 606.947 141.333 608.613 143C610.28 144.667 612.363 145.5 614.863 145.5H647.363V178ZM715.088 50.5V178H671.338V84.25H652.588V50.5H715.088ZM671.338 0.49999H715.088V35.5H671.338V0.49999ZM875.166 140.5C875.166 153 871.583 162.833 864.416 170C857.416 177 847.666 180.5 835.166 180.5H777.666C765.166 180.5 755.333 177 748.166 170C741.166 162.833 737.666 153 737.666 140.5V83C737.666 70.5 741.166 60.75 748.166 53.75C755.333 46.5833 765.166 43 777.666 43H835.166C847.666 43 857.416 46.5833 864.416 53.75C871.583 60.75 875.166 70.5 875.166 83V140.5ZM831.416 86.75C831.416 80.0833 828.083 76.75 821.416 76.75H791.416C784.749 76.75 781.416 80.0833 781.416 86.75V136.75C781.416 143.417 784.749 146.75 791.416 146.75H821.416C828.083 146.75 831.416 143.417 831.416 136.75V86.75ZM971.387 79.25C962.553 79.25 952.553 80.9167 941.387 84.25V178H897.637V45.5H936.387L938.887 58C946.72 52.8333 954.72 49.0833 962.887 46.75C971.22 44.25 978.22 43 983.887 43H995.137C1006.47 43 1015.55 46.4167 1022.39 53.25C1029.22 60.0833 1032.64 69.1667 1032.64 80.5V178H988.887V88C988.887 85.5 988.053 83.4167 986.387 81.75C984.72 80.0833 982.637 79.25 980.137 79.25H971.387ZM1050.11 143C1083.94 145.5 1110.61 146.75 1130.11 146.75C1132.61 146.75 1134.69 145.917 1136.36 144.25C1138.02 142.583 1138.86 140.5 1138.86 138V129.25H1085.11C1073.77 129.25 1064.69 125.833 1057.86 119C1051.02 112.167 1047.61 103.083 1047.61 91.75V83C1047.61 71.6667 1051.02 62.5833 1057.86 55.75C1064.69 48.9167 1073.77 45.5 1085.11 45.5H1170.11V78H1100.11C1097.61 78 1095.52 78.8333 1093.86 80.5C1092.19 82.1667 1091.36 84.25 1091.36 86.75C1091.36 89.25 1092.19 91.3333 1093.86 93C1095.52 94.6667 1097.61 95.5 1100.11 95.5H1145.11C1156.44 95.5 1165.52 98.9167 1172.36 105.75C1179.19 112.583 1182.61 121.667 1182.61 133V143C1182.61 154.333 1179.19 163.417 1172.36 170.25C1165.52 177.083 1156.44 180.5 1145.11 180.5C1115.61 180.5 1083.94 178.833 1050.11 175.5V143Z" fill="#ED2E38" fill-opacity="0.2"/>
</svg>
