<svg width="190" height="17" viewBox="0 0 190 17" fill="none" xmlns="http://www.w3.org/2000/svg">
<path d="M189.999 0H112.135V16.9978H189.999V0Z" fill="#ED2E38"/>
<path d="M112.134 12.7928C114.576 12.7928 116.555 10.8708 116.555 8.49997C116.555 6.12911 114.576 4.20715 112.134 4.20715C109.693 4.20715 107.714 6.12911 107.714 8.49997C107.714 10.8708 109.693 12.7928 112.134 12.7928Z" fill="#ED2E38"/>
<path d="M129.232 13.8226C128.499 14.2267 127.502 14.4287 126.238 14.4287C124.588 14.4287 123.317 14.0422 122.426 13.2671C121.536 12.4942 121.09 11.3326 121.09 9.78454V6.85752H120.03V3.4057H121.09H125.956H127.993H128.368V6.85752H125.956V9.74282C125.956 10.092 126.048 10.3642 126.236 10.5575C126.421 10.7529 126.666 10.8495 126.969 10.8495C127.385 10.8495 127.751 10.7441 128.067 10.5355L129.23 13.8183L129.232 13.8226ZM142.669 8.48901C142.669 8.55928 142.648 8.92817 142.603 9.5979H134.421C134.593 10.0305 134.88 10.362 135.282 10.5904C135.685 10.821 136.186 10.9351 136.79 10.9351C137.308 10.9351 137.742 10.8715 138.092 10.7463C138.443 10.6211 138.827 10.4038 139.246 10.0985L141.787 12.5864C140.638 13.8139 138.922 14.4265 136.641 14.4265C135.219 14.4265 133.971 14.1718 132.895 13.6624C131.818 13.1529 130.984 12.4459 130.396 11.539C129.808 10.6321 129.512 9.61546 129.512 8.48462C129.512 7.3406 129.804 6.31954 130.385 5.42145C130.966 4.52117 131.762 3.82071 132.775 3.32006C133.788 2.81722 134.925 2.56689 136.189 2.56689C137.38 2.56689 138.468 2.79746 139.451 3.25638C140.435 3.71531 141.217 4.39381 141.798 5.28531C142.379 6.17682 142.671 7.24398 142.671 8.48462L142.669 8.48901ZM136.229 5.79035C135.728 5.79035 135.312 5.9221 134.981 6.18779C134.651 6.45349 134.437 6.82897 134.335 7.31644H138.124C138.022 6.84215 137.808 6.46886 137.477 6.19658C137.147 5.9243 136.731 5.78816 136.229 5.78816V5.79035ZM149.151 2.56909C151.217 2.56909 152.798 3.01923 153.887 3.91732C154.979 4.81761 155.524 6.20097 155.524 8.06741V14.2157H151.002V12.7094C150.442 13.8534 149.329 14.4243 147.665 14.4243C146.732 14.4243 145.938 14.2662 145.287 13.9544C144.633 13.6404 144.138 13.2144 143.801 12.6786C143.464 12.1428 143.295 11.539 143.295 10.8693C143.295 9.74062 143.74 8.88206 144.631 8.29797C145.522 7.71169 146.869 7.41965 148.68 7.41965H150.641C150.482 6.52815 149.743 6.0824 148.423 6.0824C147.891 6.0824 147.353 6.16364 146.808 6.32393C146.264 6.48423 145.795 6.70381 145.409 6.98268L143.858 3.86682C144.532 3.46279 145.348 3.14439 146.302 2.91603C147.256 2.68547 148.208 2.57129 149.155 2.57129L149.151 2.56909ZM149.13 11.5829C149.474 11.5829 149.784 11.4929 150.055 11.3106C150.329 11.1284 150.53 10.8561 150.659 10.4938V9.6989H149.454C148.463 9.6989 147.968 10.0195 147.968 10.6607C147.968 10.9264 148.072 11.1459 148.28 11.3194C148.488 11.4929 148.771 11.5807 149.13 11.5807V11.5829ZM173.228 2.56909C174.65 2.56909 175.787 2.99508 176.642 3.84486C177.496 4.69464 177.923 5.977 177.923 7.69193V14.2179H173.058V8.50877C173.058 7.19787 172.619 6.54352 171.744 6.54352C171.285 6.54352 170.915 6.7104 170.634 7.04636C170.354 7.38012 170.214 7.91151 170.214 8.63613V14.2201H165.348V8.51097C165.348 7.20007 164.91 6.54571 164.035 6.54571C163.576 6.54571 163.205 6.71259 162.927 7.04855C162.646 7.38232 162.506 7.91371 162.506 8.63832V14.2223H157.641V2.78208H162.271V3.84925C163.146 2.99947 164.258 2.57348 165.608 2.57348C166.397 2.57348 167.107 2.71621 167.74 3.00167C168.371 3.28712 168.889 3.72409 169.291 4.30818C169.766 3.75044 170.34 3.32226 171.014 3.02143C171.688 2.7228 172.427 2.57129 173.232 2.57129L173.228 2.56909Z" fill="#FEFEFE"/>
<path d="M0.000976562 0H8.62873C10.5799 0 12.3005 0.344743 13.7927 1.03203C15.2849 1.71932 16.4448 2.70524 17.2678 3.98321C18.093 5.26117 18.5045 6.7675 18.5045 8.5C18.5045 10.2325 18.0908 11.7388 17.2678 13.0168C16.4448 14.2948 15.2849 15.2785 13.7927 15.968C12.3005 16.6553 10.5777 17 8.62873 17H0.000976563V0H0.000976562ZM8.37777 12.5315C9.6439 12.5315 10.6591 12.178 11.4165 11.4753C12.1739 10.7727 12.5537 9.78016 12.5537 8.5C12.5537 7.21984 12.1739 6.22733 11.4165 5.52467C10.6591 4.82201 9.6439 4.46848 8.37777 4.46848H5.90204V12.5315H8.37777ZM31.0415 14.0378H24.3898L23.2141 17H17.2135L24.8646 0H30.6661L38.3172 17H32.2149L31.0392 14.0378H31.0415ZM29.4158 9.90971L27.7156 5.63446L26.0154 9.90971H29.4158ZM39.6986 0.00219582H45.5997V17.0022H39.6986V0.00219582ZM64.0783 17.0022L64.0286 9.25536L60.228 15.4717H57.6279L53.8272 9.52106V17H48.4507V0H53.3027L59.0048 9.05774L64.5577 0H69.4096L69.4594 17H64.0829L64.0783 17.0022ZM84.2324 14.04H77.5807L76.405 17.0022H70.4045L78.0555 0.00219582H83.8571L91.5081 17.0022H85.4058L84.2301 14.04H84.2324ZM82.6068 9.91191L80.9065 5.63666L79.2063 9.91191H82.6068ZM102.537 17.0044L99.5118 12.4634L96.5613 17.0044H89.835L96.1611 8.43193L90.0588 0.00439163H96.6856L99.661 4.27964L102.562 0.00439163H108.913L102.835 8.21235L109.288 17.0044H102.537Z" fill="white"/>
<path fill-rule="evenodd" clip-rule="evenodd" d="M112.135 8.49997V4.20715C114.577 4.20715 116.555 6.12849 116.555 8.49997C116.555 10.8693 114.577 12.7928 112.135 12.7928V8.49997Z" fill="white"/>
<path d="M184.012 10.5048C184.707 10.5048 185.281 10.7265 185.738 11.1679C186.194 11.6115 186.423 12.189 186.423 12.9026C186.423 13.21 186.377 13.535 186.289 13.8709C186.201 14.2069 186.018 14.7141 185.74 15.3883L185.141 17H182.477L183.004 15.0413C182.568 14.8678 182.226 14.5934 181.978 14.2179C181.729 13.8424 181.604 13.4032 181.604 12.9026C181.604 12.1911 181.833 11.6115 182.29 11.1679C182.746 10.7243 183.321 10.5048 184.015 10.5048H184.012Z" fill="white"/>
<path d="M184.012 7.30329C183.339 7.30329 182.762 7.07712 182.287 6.62478C181.81 6.17244 181.573 5.59934 181.573 4.90546C181.573 4.19182 181.806 3.61432 182.271 3.17076C182.737 2.72721 183.318 2.50543 184.012 2.50543C184.706 2.50543 185.287 2.72721 185.753 3.17076C186.219 3.61432 186.452 4.19182 186.452 4.90546C186.452 5.59934 186.214 6.17244 185.737 6.62478C185.26 7.07712 184.686 7.30329 184.012 7.30329Z" fill="white"/>
</svg>
