<svg width="190" height="17" viewBox="0 0 190 17" fill="none" xmlns="http://www.w3.org/2000/svg">
<path d="M190 0H112V17H190V0Z" fill="#FF0F0F"/>
<path d="M112.5 13C114.985 13 117 10.9853 117 8.5C117 6.01472 114.985 4 112.5 4C110.015 4 108 6.01472 108 8.5C108 10.9853 110.015 13 112.5 13Z" fill="#FF0F0F"/>
<path d="M129.219 14.3869C128.485 14.7956 127.486 15 126.22 15C124.566 15 123.293 14.609 122.401 13.8249C121.509 13.0429 121.062 11.8678 121.062 10.3017V7.34061H120V3.84857H121.062H125.937H127.978H128.354V7.34061H125.937V10.2595C125.937 10.6127 126.03 10.8882 126.218 11.0837C126.403 11.2814 126.648 11.3791 126.952 11.3791C127.368 11.3791 127.735 11.2725 128.052 11.0615L129.217 14.3825L129.219 14.3869ZM142.68 8.99111C142.68 9.0622 142.66 9.43539 142.615 10.1129H134.417C134.589 10.5505 134.877 10.886 135.28 11.117C135.684 11.3502 136.186 11.4658 136.791 11.4658C137.31 11.4658 137.745 11.4013 138.096 11.2747C138.447 11.1481 138.832 10.9282 139.251 10.6194L141.797 13.1362C140.646 14.378 138.927 14.9978 136.642 14.9978C135.217 14.9978 133.967 14.7401 132.888 14.2247C131.81 13.7094 130.974 12.9941 130.385 12.0766C129.797 11.1592 129.5 10.1307 129.5 8.98667C129.5 7.82932 129.792 6.79637 130.374 5.88782C130.956 4.97705 131.754 4.26842 132.768 3.76194C133.783 3.25324 134.922 3 136.189 3C137.382 3 138.472 3.23325 139.457 3.69752C140.442 4.16179 141.226 4.8482 141.808 5.75009C142.39 6.65198 142.683 7.73158 142.683 8.98667L142.68 8.99111ZM136.229 6.26101C135.727 6.26101 135.31 6.3943 134.979 6.66309C134.648 6.93188 134.433 7.31174 134.331 7.80489H138.128C138.026 7.32506 137.81 6.94743 137.48 6.67197C137.149 6.39652 136.732 6.25879 136.229 6.25879V6.26101ZM149.174 3.00222C151.245 3.00222 152.828 3.45761 153.92 4.36616C155.014 5.27693 155.56 6.67642 155.56 8.56461V14.7845H151.03V13.2606C150.468 14.418 149.353 14.9956 147.686 14.9956C146.751 14.9956 145.956 14.8356 145.303 14.5202C144.649 14.2025 144.153 13.7716 143.815 13.2295C143.478 12.6875 143.308 12.0766 143.308 11.3991C143.308 10.2573 143.754 9.38875 144.646 8.79785C145.539 8.20474 146.889 7.90929 148.703 7.90929H150.667C150.509 7.0074 149.768 6.55646 148.445 6.55646C147.913 6.55646 147.374 6.63865 146.828 6.80081C146.282 6.96298 145.813 7.18512 145.426 7.46723L143.872 4.31507C144.547 3.90633 145.365 3.58423 146.32 3.3532C147.276 3.11996 148.23 3.00444 149.179 3.00444L149.174 3.00222ZM149.154 12.1211C149.498 12.1211 149.809 12.03 150.08 11.8456C150.355 11.6612 150.556 11.3858 150.685 11.0193V10.2151H149.478C148.486 10.2151 147.99 10.5394 147.99 11.1881C147.99 11.4569 148.094 11.679 148.302 11.8545C148.511 12.03 148.794 12.1188 149.154 12.1188V12.1211ZM173.295 3.00222C174.72 3.00222 175.859 3.43317 176.716 4.29285C177.572 5.15254 178 6.44983 178 8.18475V14.7867H173.126V9.01111C173.126 7.68493 172.686 7.02295 171.809 7.02295C171.35 7.02295 170.978 7.19178 170.697 7.53166C170.416 7.86931 170.276 8.40689 170.276 9.13995V14.789H165.402V9.01333C165.402 7.68715 164.962 7.02518 164.086 7.02518C163.626 7.02518 163.254 7.194 162.976 7.53388C162.695 7.87153 162.554 8.40911 162.554 9.14217V14.7912H157.68V3.2177H162.319V4.2973C163.195 3.43762 164.31 3.00666 165.662 3.00666C166.453 3.00666 167.164 3.15106 167.798 3.43984C168.43 3.72862 168.949 4.17068 169.352 4.76157C169.828 4.19733 170.403 3.76416 171.078 3.45983C171.753 3.15772 172.494 3.00444 173.3 3.00444L173.295 3.00222Z" fill="#FEFEFE"/>
<path d="M0 0H8.60509C10.5512 0 12.2672 0.344654 13.7555 1.03177C15.2438 1.71888 16.4006 2.70455 17.2214 3.98218C18.0445 5.25981 18.4549 6.76575 18.4549 8.4978C18.4549 10.2299 18.0423 11.7358 17.2214 13.0134C16.4006 14.2911 15.2438 15.2745 13.7555 15.9638C12.2672 16.651 10.5489 16.9956 8.60509 16.9956H0V0H0ZM8.35478 12.5283C9.61758 12.5283 10.6301 12.1748 11.3855 11.4724C12.1409 10.7699 12.5198 9.77763 12.5198 8.4978C12.5198 7.21797 12.1409 6.22572 11.3855 5.52324C10.6301 4.82076 9.61758 4.46733 8.35478 4.46733H5.88555V12.5283H8.35478ZM30.9589 14.0342H24.3247L23.1521 16.9956H17.1673L24.7983 0H30.5846L38.2155 16.9956H32.1293L30.9567 14.0342H30.9589ZM29.3376 9.90715L27.6418 5.63301L25.946 9.90715H29.3376ZM39.5933 0.00219525H45.4789V16.9978H39.5933V0.00219525ZM63.909 16.9978L63.8594 9.25297L60.0687 15.4677H57.4755L53.6848 9.51859V16.9956H48.3224V0H53.1617L58.8488 9.0554L64.3871 0H69.2263L69.2759 16.9956H63.9135L63.909 16.9978ZM84.0101 14.0364H77.3759L76.2033 16.9978H70.2185L77.8494 0.00219525H83.6357L91.2667 16.9978H85.1804L84.0078 14.0364H84.0101ZM82.3887 9.90935L80.693 5.6352L78.9972 9.90935H82.3887ZM102.267 17L99.2494 12.4602L96.3066 17H89.598L95.9075 8.42975L89.8212 0.0043905H96.4306L99.3982 4.27854L102.291 0.0043905H108.626L102.564 8.21023L109 17H102.267Z" fill="white"/>
<path fill-rule="evenodd" clip-rule="evenodd" d="M112 8.5V4C114.21 4 116 6.01407 116 8.5C116 10.9836 114.21 13 112 13V8.5Z" fill="white"/>
<path d="M184.499 11C185.219 11 185.815 11.2049 186.289 11.6126C186.763 12.0223 187 12.5558 187 13.215C187 13.499 186.953 13.7992 186.862 14.1095C186.77 14.4199 186.58 14.8884 186.291 15.5112L185.67 17H182.906L183.452 15.1907C183 15.0304 182.645 14.7769 182.387 14.43C182.129 14.0832 182 13.6775 182 13.215C182 12.5578 182.237 12.0223 182.711 11.6126C183.185 11.2028 183.781 11 184.501 11H184.499Z" fill="white"/>
<path d="M184.5 8C183.81 8 183.219 7.7643 182.732 7.29291C182.243 6.82151 182 6.22426 182 5.50114C182 4.75744 182.239 4.15561 182.716 3.69336C183.193 3.23112 183.789 3 184.5 3C185.211 3 185.807 3.23112 186.284 3.69336C186.761 4.15561 187 4.75744 187 5.50114C187 6.22426 186.757 6.82151 186.268 7.29291C185.779 7.7643 185.19 8 184.5 8Z" fill="white"/>
</svg>
