<svg width="212" height="1306" viewBox="0 0 212 1306" fill="none" xmlns="http://www.w3.org/2000/svg">
<path d="M1.00045 1223.16L56.9921 1186.93L1.00045 1151.6C1.00045 1107.08 1.00045 1062.57 1.00045 1018.06L37.528 1003.99V924.343L1.00045 910.268V838.41L210.59 930.029V999.495L18.3848 1083.52L106.692 1146.81L210.59 1073.75V1153.09L157.895 1188.72L210.59 1223.46V1299.51L109.387 1226.75L1.00045 1304V1223.16V1223.16ZM210.59 1V104.298C210.59 127.652 206.336 148.272 197.866 166.128C189.393 183.982 177.246 197.877 161.487 207.747C145.726 217.617 127.154 222.567 105.794 222.567C84.4379 222.567 65.8645 217.617 50.1031 207.747C34.3449 197.877 22.2085 183.992 13.7244 166.128C5.24139 148.262 1.00067 127.63 1.00067 104.298V1H210.59H210.59ZM56.0932 101.302C56.0932 116.473 60.4439 128.61 69.1183 137.685C77.7894 146.755 90.0254 151.306 105.794 151.306C121.567 151.306 133.802 146.755 142.473 137.685C151.148 128.61 155.497 116.452 155.497 101.302V71.6597H56.0932V101.302V101.302ZM37.5278 372.662V293.019L1.00022 278.944V207.085L210.59 298.706V368.17L1.00022 459.79V386.737L37.5278 372.662V372.662ZM88.43 353.201L141.125 332.838L88.43 312.48V353.201V353.201ZM210.59 476.33V546.99H1.00022V476.33H210.59ZM1.00022 762.661L96.5145 762.063L19.8632 716.55V685.412L93.2181 639.899H1V575.527H210.59V633.612L98.9084 701.877L210.59 768.351V826.436L1 827.033V762.661H1.00022ZM88.43 984.525L141.125 964.162L88.43 943.804V984.525Z" stroke="#ED2E38" stroke-width="2" stroke-miterlimit="22.9256"/>
</svg>
