<svg width="689" height="523" viewBox="0 0 689 523" fill="none" xmlns="http://www.w3.org/2000/svg">
<g clip-path="url(#clip0_1003_14938)">
<rect width="689" height="523" fill="black"/>
<path d="M-227 142.375H-178.543V87.9258H178.543V142.375H227V28H-227V142.375ZM24.7163 471H-24.7164V454.569C-24.7164 447.803 -26.6676 442.648 -30.5702 438.782C-34.4728 435.238 -40.3267 433.305 -48.1318 433.305H-147.973C-173.99 433.305 -193.503 426.217 -206.837 412.363C-220.17 398.509 -227 377.889 -227 351.148V326.985H-178.543V336.972C-178.543 349.215 -175.291 358.236 -169.112 364.036C-162.933 369.835 -153.827 373.057 -141.794 373.057H-49.7579C-34.798 373.057 -23.7407 375.312 -16.2608 379.5C-8.78081 383.689 -3.57738 391.099 -0.325241 400.764C2.92691 390.777 8.13036 383.689 15.6103 379.5C23.0902 375.312 34.1476 373.057 49.1074 373.057H141.143C153.176 373.057 162.282 370.157 168.461 364.036C174.64 358.236 177.893 349.215 177.893 336.972V326.985H226.35V351.148C226.35 378.212 219.52 398.509 206.186 412.363C192.852 426.217 173.014 433.305 147.322 433.305H47.4814C39.6762 433.305 33.8223 435.238 29.9198 438.782C26.0172 442.326 24.0659 447.803 24.0659 454.569V471H24.7163ZM-54.6361 227.753C-54.6361 239.029 -58.2135 248.372 -65.6934 255.783C-73.1734 263.193 -82.9298 266.737 -94.6375 266.737C-99.841 266.737 -105.37 266.092 -110.898 264.481C-116.427 263.193 -125.208 259.971 -136.265 255.46L-204.56 230.975V191.991L-130.411 211.321C-127.484 204.233 -122.931 198.756 -116.752 194.89C-110.573 191.024 -103.093 188.769 -94.6375 188.769C-82.6046 188.769 -72.8481 192.313 -65.6934 199.723C-58.2135 207.133 -54.6361 216.476 -54.6361 227.431V227.753ZM49.7579 227.431C49.7579 216.476 53.6604 207.133 61.1404 199.401C68.6203 191.668 78.3768 187.802 90.0845 187.802C102.117 187.802 111.874 191.668 119.029 199.079C126.509 206.489 130.086 215.832 130.086 227.108C130.086 238.385 126.509 247.728 119.029 255.138C111.549 262.548 101.792 266.415 90.0845 266.415C78.3768 266.415 68.9455 262.548 61.1404 254.816C53.6604 247.084 49.7579 237.74 49.7579 227.108V227.431Z" fill="#ED2E38" fill-opacity="0.25"/>
</g>
<defs>
<clipPath id="clip0_1003_14938">
<rect width="689" height="523" fill="white"/>
</clipPath>
</defs>
</svg>
