<svg width="690" height="500" viewBox="0 0 690 500" fill="none" xmlns="http://www.w3.org/2000/svg">
<g clip-path="url(#clip0_589_19206)">
<rect width="690" height="500" fill="black"/>
<path d="M287.367 450.578L287.367 450.58C290.987 456.183 292.809 462.809 292.809 470.49C292.809 478.17 290.977 484.797 287.367 490.402C283.751 496.015 278.65 500.349 272.048 503.399C265.443 506.44 257.787 507.98 249.078 507.98H211V433H249.078C257.798 433 265.444 434.54 272.049 437.582C278.649 440.621 283.75 444.964 287.367 450.578ZM236.728 451.234H235.728V452.234V488.746V489.746H236.728H247.941C253.869 489.746 258.73 488.086 262.385 484.696C266.066 481.282 267.856 476.494 267.856 470.49C267.856 464.486 266.066 459.698 262.385 456.284C258.73 452.894 253.869 451.234 247.941 451.234H236.728ZM320.465 494.567H319.786L319.536 495.198L314.461 507.98H289.509L323.262 433H348.247L382.001 507.98H356.587L351.512 495.198L350.593 495.563V494.567H350.583H349.11H320.465ZM343.23 477.874H344.704L344.159 476.504L336.458 457.145L335.529 454.809L334.6 457.145L326.899 476.504L326.354 477.874H327.828H343.23ZM523.599 507.98H501.222L501.004 473.904L500.981 470.395L499.151 473.389L482.229 501.06H471.56L454.641 474.575L452.798 471.691V475.114V507.98H430.446V433H450.87L476.403 473.548L477.26 474.91L478.101 473.538L502.96 433H523.379L523.599 507.98ZM561.386 494.577H560.707L560.456 495.208L555.382 507.99H530.429L564.183 433.01H589.167L620.448 502.496L616.392 507.99H597.507L592.433 495.208L591.514 495.573V494.577H591.503H590.03H561.386ZM618.878 507.99L621.39 504.588L622.921 507.99H618.878ZM625.119 508L622.752 502.742L646.348 470.776L646.782 470.187L646.353 469.595L619.863 433.02H647.397L660.575 451.951L661.406 453.145L662.223 451.941L675.064 433.02H701.315L674.97 468.592L674.531 469.185L674.967 469.779L703.025 508L674.957 508L661.552 487.883L660.709 486.618L659.881 487.893L646.813 508H625.119ZM584.151 477.884H585.625L585.08 476.514L577.379 457.155L576.45 454.819L575.521 457.155L567.82 476.514L567.275 477.884H568.749H584.151ZM390.805 433.01H415.532V507.99H390.805V433.01Z" stroke="#ED2E38" stroke-opacity="0.4" stroke-width="2"/>
<path d="M-227 142.375H-178.543V87.9258H178.543V142.375H227V28H-227V142.375ZM24.7163 471H-24.7164V454.569C-24.7164 447.803 -26.6676 442.648 -30.5702 438.782C-34.4728 435.238 -40.3267 433.305 -48.1318 433.305H-147.973C-173.99 433.305 -193.503 426.217 -206.837 412.363C-220.17 398.509 -227 377.889 -227 351.148V326.985H-178.543V336.972C-178.543 349.215 -175.291 358.236 -169.112 364.036C-162.933 369.835 -153.827 373.057 -141.794 373.057H-49.7579C-34.798 373.057 -23.7407 375.312 -16.2608 379.5C-8.78081 383.689 -3.57738 391.099 -0.325241 400.764C2.92691 390.777 8.13036 383.689 15.6103 379.5C23.0902 375.312 34.1476 373.057 49.1074 373.057H141.143C153.176 373.057 162.282 370.157 168.461 364.036C174.64 358.236 177.893 349.215 177.893 336.972V326.985H226.35V351.148C226.35 378.212 219.52 398.509 206.186 412.363C192.852 426.217 173.014 433.305 147.322 433.305H47.4814C39.6762 433.305 33.8223 435.238 29.9198 438.782C26.0172 442.326 24.0659 447.803 24.0659 454.569V471H24.7163ZM-54.6361 227.753C-54.6361 239.029 -58.2135 248.372 -65.6934 255.783C-73.1734 263.193 -82.9298 266.737 -94.6375 266.737C-99.841 266.737 -105.37 266.092 -110.898 264.481C-116.427 263.193 -125.208 259.971 -136.265 255.46L-204.56 230.975V191.991L-130.411 211.321C-127.484 204.233 -122.931 198.756 -116.752 194.89C-110.573 191.024 -103.093 188.769 -94.6375 188.769C-82.6046 188.769 -72.8481 192.313 -65.6934 199.723C-58.2135 207.133 -54.6361 216.476 -54.6361 227.431V227.753ZM49.7579 227.431C49.7579 216.476 53.6604 207.133 61.1404 199.401C68.6203 191.668 78.3768 187.802 90.0845 187.802C102.117 187.802 111.874 191.668 119.029 199.079C126.509 206.489 130.086 215.832 130.086 227.108C130.086 238.385 126.509 247.728 119.029 255.138C111.549 262.548 101.792 266.415 90.0845 266.415C78.3768 266.415 68.9455 262.548 61.1404 254.816C53.6604 247.084 49.7579 237.74 49.7579 227.108V227.431Z" fill="#ED2E38" fill-opacity="0.25"/>
</g>
<defs>
<clipPath id="clip0_589_19206">
<rect width="690" height="500" fill="white"/>
</clipPath>
</defs>
</svg>
