<svg width="320" height="678" viewBox="0 0 320 678" fill="none" xmlns="http://www.w3.org/2000/svg">
<g clip-path="url(#clip0_599_19307)">
<rect width="320" height="678" fill="black"/>
<path d="M80.8813 643.318L80.8807 643.317C78.765 640.032 75.7791 637.486 71.9001 635.7C68.0154 633.911 63.5068 633 58.3454 633H36V676.988H58.3454C63.5008 676.988 68.0154 676.077 71.9 674.288L80.8813 643.318ZM80.8813 643.318C82.9956 646.591 84.0678 650.472 84.0678 654.994M80.8813 643.318L84.0678 654.994M84.0678 654.994C84.0678 659.515 82.99 663.397 80.8807 666.671M84.0678 654.994L80.8807 666.671M80.8807 666.671C78.7656 669.955 75.7802 672.495 71.9001 674.288L80.8807 666.671ZM50.9674 643.088H49.9674V644.088V665.9V666.9H50.9674H57.6663C61.2854 666.9 64.295 665.885 66.5686 663.776C68.8688 661.643 69.9658 658.665 69.9658 654.994C69.9658 651.323 68.8688 648.345 66.5686 646.212C64.295 644.103 61.2854 643.088 57.6663 643.088H50.9674ZM100.992 668.975H100.313L100.063 669.606L97.1321 676.988H83.1214L102.924 633H117.329L137.131 676.988H122.845L119.914 669.606L118.991 669.973V668.975H118.985H117.512H100.992ZM114.592 659.808H116.066L115.521 658.438L110.921 646.873L109.992 644.537L109.062 646.873L104.462 658.438L103.917 659.808H105.391H114.592ZM221.812 633L221.941 676.988H209.377L209.249 657.031L209.226 653.522L207.396 656.516L197.404 672.854H191.477L181.488 657.218L179.646 654.333V657.756V676.988H167.098V633H178.674L193.809 657.036L194.667 658.397L195.508 657.026L210.24 633H221.812ZM244.919 668.981H244.24L243.989 669.612L241.059 676.994H227.048L246.85 633.006H261.255L279.739 674.065L277.577 676.994H266.771L263.841 669.612L262.917 669.978V668.981H262.911H261.438H244.919ZM282.043 674.311L295.999 655.404L296.433 654.816L296.004 654.223L280.642 633.012H296.092L303.844 644.149L304.675 645.343L305.492 644.139L313.044 633.012H327.714L312.451 653.621L312.012 654.213L312.448 654.808L328.74 677H312.982L305.093 665.161L304.251 663.897L303.423 665.171L295.735 677H283.253L282.043 674.311ZM280.063 676.994L280.681 676.157L281.057 676.994H280.063ZM258.519 659.814H259.993L259.448 658.444L254.847 646.879L253.918 644.543L252.989 646.879L248.388 658.444L247.843 659.814H249.317H258.519ZM143.416 633.006L157.383 633.006V676.994H143.416V633.006Z" stroke="#ED2E38" stroke-opacity="0.4" stroke-width="2"/>
<path d="M-227 142.375H-178.543V87.9258H178.543V142.375H227V28H-227V142.375ZM24.7163 471H-24.7164V454.569C-24.7164 447.803 -26.6676 442.648 -30.5702 438.782C-34.4728 435.238 -40.3267 433.305 -48.1318 433.305H-147.973C-173.99 433.305 -193.503 426.217 -206.837 412.363C-220.17 398.509 -227 377.889 -227 351.148V326.985H-178.543V336.972C-178.543 349.215 -175.291 358.236 -169.112 364.036C-162.933 369.835 -153.827 373.057 -141.794 373.057H-49.7579C-34.798 373.057 -23.7407 375.312 -16.2608 379.5C-8.78081 383.689 -3.57738 391.099 -0.325241 400.764C2.92691 390.777 8.13036 383.689 15.6103 379.5C23.0902 375.312 34.1476 373.057 49.1074 373.057H141.143C153.176 373.057 162.282 370.157 168.461 364.036C174.64 358.236 177.893 349.215 177.893 336.972V326.985H226.35V351.148C226.35 378.212 219.52 398.509 206.186 412.363C192.852 426.217 173.014 433.305 147.322 433.305H47.4814C39.6762 433.305 33.8223 435.238 29.9198 438.782C26.0172 442.326 24.0659 447.803 24.0659 454.569V471H24.7163ZM-54.6361 227.753C-54.6361 239.029 -58.2135 248.372 -65.6934 255.783C-73.1734 263.193 -82.9298 266.737 -94.6375 266.737C-99.841 266.737 -105.37 266.092 -110.898 264.481C-116.427 263.193 -125.208 259.971 -136.265 255.46L-204.56 230.975V191.991L-130.411 211.321C-127.484 204.233 -122.931 198.756 -116.752 194.89C-110.573 191.024 -103.093 188.769 -94.6375 188.769C-82.6046 188.769 -72.8481 192.313 -65.6934 199.723C-58.2135 207.133 -54.6361 216.476 -54.6361 227.431V227.753ZM49.7579 227.431C49.7579 216.476 53.6604 207.133 61.1404 199.401C68.6203 191.668 78.3768 187.802 90.0845 187.802C102.117 187.802 111.874 191.668 119.029 199.079C126.509 206.489 130.086 215.832 130.086 227.108C130.086 238.385 126.509 247.728 119.029 255.138C111.549 262.548 101.792 266.415 90.0845 266.415C78.3768 266.415 68.9455 262.548 61.1404 254.816C53.6604 247.084 49.7579 237.74 49.7579 227.108V227.431Z" fill="#ED2E38" fill-opacity="0.25"/>
</g>
<defs>
<clipPath id="clip0_599_19307">
<rect width="320" height="678" fill="white"/>
</clipPath>
</defs>
</svg>
