<svg width="41" height="40" viewBox="0 0 41 40" fill="none" xmlns="http://www.w3.org/2000/svg">
<path d="M0 10.3305H4.37607V5.41587H36.6239V10.3305H41V0.00683594H0V10.3305ZM22.7321 39.993H18.2679V38.5099C18.2679 37.8992 18.0917 37.4339 17.7393 37.0849C17.3868 36.765 16.8582 36.5905 16.1533 36.5905H7.13682C4.78725 36.5905 3.02507 35.9508 1.82092 34.7003C0.616762 33.4498 0 31.5886 0 29.1749V26.9939H4.37607V27.8954C4.37607 29.0004 4.66977 29.8147 5.22779 30.3382C5.78582 30.8616 6.60817 31.1524 7.69484 31.1524H16.0064C17.3575 31.1524 18.356 31.356 19.0315 31.734C19.707 32.1121 20.1769 32.7809 20.4706 33.6534C20.7643 32.7519 21.2342 32.1121 21.9097 31.734C22.5852 31.356 23.5838 31.1524 24.9348 31.1524H33.2464C34.3331 31.1524 35.1554 30.8907 35.7135 30.3382C36.2715 29.8147 36.5652 29.0004 36.5652 27.8954V26.9939H40.9413V29.1749C40.9413 31.6177 40.3245 33.4498 39.1203 34.7003C37.9162 35.9508 36.1246 36.5905 33.8044 36.5905H24.788C24.0831 36.5905 23.5544 36.765 23.202 37.0849C22.8496 37.4048 22.6734 37.8992 22.6734 38.5099V39.993H22.7321ZM15.5659 18.037C15.5659 19.0548 15.2428 19.8981 14.5673 20.567C13.8918 21.2359 13.0107 21.5557 11.9534 21.5557C11.4835 21.5557 10.9842 21.4976 10.485 21.3522C9.98567 21.2359 9.19269 20.945 8.19413 20.5379L2.0265 18.3278V14.809L8.72278 16.5538C8.98711 15.9141 9.39828 15.4197 9.9563 15.0707C10.5143 14.7217 11.1898 14.5182 11.9534 14.5182C13.0401 14.5182 13.9212 14.8381 14.5673 15.5069C15.2428 16.1758 15.5659 17.0191 15.5659 18.0079V18.037ZM24.9936 18.0079C24.9936 17.0191 25.346 16.1758 26.0215 15.4778C26.697 14.7799 27.5781 14.4309 28.6354 14.4309C29.7221 14.4309 30.6032 14.7799 31.2493 15.4488C31.9248 16.1176 32.2479 16.961 32.2479 17.9788C32.2479 18.9966 31.9248 19.84 31.2493 20.5088C30.5738 21.1777 29.6927 21.5267 28.6354 21.5267C27.5781 21.5267 26.7264 21.1777 26.0215 20.4798C25.346 19.7818 24.9936 18.9385 24.9936 17.9788V18.0079Z" fill="#ED2E38"/>
</svg>
