<svg width="36" height="36" viewBox="0 0 36 36" fill="none" xmlns="http://www.w3.org/2000/svg">
<path d="M25.5 17C26.0523 17 26.5 17.4477 26.5 18C26.5 18.5523 26.0523 19 25.5 19L25.5 17ZM4.5 19C3.94772 19 3.5 18.5523 3.5 18C3.5 17.4477 3.94772 17 4.5 17L4.5 19ZM25.5 19L4.5 19L4.5 17L25.5 17L25.5 19Z" fill="white"/>
<path d="M32.7152 17.7966L23.765 11.4036C23.2355 11.0254 22.5 11.4039 22.5 12.0546L22.5 23.9454C22.5 24.5961 23.2355 24.9746 23.765 24.5964L32.7152 18.2034C32.8548 18.1037 32.8548 17.8963 32.7152 17.7966Z" fill="white"/>
</svg>
