<svg width="1043" height="223" viewBox="0 0 1043 223" fill="none" xmlns="http://www.w3.org/2000/svg">
<g clip-path="url(#clip0_719_18278)">
<path d="M155.5 125.5L178 45.5H225.5L184.25 178H138L113 98L88 178H41.75L0.5 45.5H48L70.5 125.5L93 45.5H133L155.5 125.5ZM279.221 48C295.387 44.6667 309.554 43 321.721 43H332.971C344.304 43 353.387 46.4167 360.221 53.25C367.054 60.0833 370.471 69.1667 370.471 80.5V178H326.721V85.5C326.721 83 325.887 80.9167 324.221 79.25C322.554 77.5833 320.471 76.75 317.971 76.75H309.221C302.887 76.75 297.054 77.0833 291.721 77.75C286.554 78.4167 282.387 78.9167 279.221 79.25V178H235.471V3H279.221V48ZM427.941 223C419.108 223 408.275 222.167 395.441 220.5V188H417.941C424.275 188 428.358 186.25 430.191 182.75C432.191 179.25 431.858 174.333 429.191 168L377.941 45.5H424.191L455.441 130.5L481.691 45.5H527.941L477.941 183C473.108 196.167 466.858 206.083 459.191 212.75C451.525 219.583 441.108 223 427.941 223ZM671.721 144.25C680.554 144.25 690.554 142.583 701.721 139.25V45.5H745.471V178H706.721L704.221 165.5C696.387 170.667 688.304 174.5 679.971 177C671.804 179.333 664.887 180.5 659.221 180.5H647.971C636.637 180.5 627.554 177.083 620.721 170.25C613.887 163.417 610.471 154.333 610.471 143V45.5H654.221V135.5C654.221 138 655.054 140.083 656.721 141.75C658.387 143.417 660.471 144.25 662.971 144.25H671.721ZM765.383 143C799.216 145.5 825.883 146.75 845.383 146.75C847.883 146.75 849.966 145.917 851.633 144.25C853.299 142.583 854.133 140.5 854.133 138V129.25H800.383C789.049 129.25 779.966 125.833 773.133 119C766.299 112.167 762.883 103.083 762.883 91.75V83C762.883 71.6667 766.299 62.5833 773.133 55.75C779.966 48.9167 789.049 45.5 800.383 45.5H885.383V78H815.383C812.883 78 810.799 78.8333 809.133 80.5C807.466 82.1667 806.633 84.25 806.633 86.75C806.633 89.25 807.466 91.3333 809.133 93C810.799 94.6667 812.883 95.5 815.383 95.5H860.383C871.716 95.5 880.799 98.9167 887.633 105.75C894.466 112.583 897.883 121.667 897.883 133V143C897.883 154.333 894.466 163.417 887.633 170.25C880.799 177.083 871.716 180.5 860.383 180.5C830.883 180.5 799.216 178.833 765.383 175.5V143ZM905.402 5.5C937.569 2.16667 967.569 0.5 995.402 0.5C1011.74 0.5 1023.74 4.33333 1031.4 12C1039.07 19.6667 1042.9 31.6667 1042.9 48V59.25C1042.9 71.75 1040.4 81.25 1035.4 87.75C1030.4 94.4167 1021.65 99.9167 1009.15 104.25L984.152 113V125.5H939.152V90.5L997.902 69.25V48C997.902 44.1667 996.736 41.1667 994.402 39C992.236 36.6667 988.402 35.5 982.902 35.5C972.902 35.5 959.902 36 943.902 37C928.069 38 915.236 38.75 905.402 39.25V5.5ZM939.152 140.5H984.152V178H939.152V140.5Z" fill="#ED2E38" fill-opacity="0.2"/>
</g>
<defs>
<clipPath id="clip0_719_18278">
<rect width="1043" height="223" fill="white"/>
</clipPath>
</defs>
</svg>
