<svg width="22" height="22" viewBox="0 0 22 22" fill="none" xmlns="http://www.w3.org/2000/svg">
<path d="M12.7195 14.4361H0.926136V10.2812H12.549C13.3658 10.2812 14.0298 10.1712 14.5412 9.95099C15.0597 9.72372 15.4396 9.40412 15.6811 8.99219C15.9297 8.57315 16.0504 8.06889 16.0433 7.4794C16.0504 6.91122 15.9297 6.39631 15.6811 5.93466C15.4396 5.46591 15.0703 5.09304 14.5732 4.81605C14.0831 4.53906 13.4652 4.40057 12.7195 4.40057H9.13991V22H3.89844V0.181818H12.7195C14.4808 0.181818 16.0078 0.494318 17.3004 1.11932C18.593 1.74432 19.5909 2.60014 20.294 3.68679C20.9972 4.77344 21.3452 6.01278 21.3381 7.40483C21.3452 8.89631 20.9865 10.1641 20.2621 11.2081C19.5447 12.2521 18.5362 13.0511 17.2365 13.6051C15.9439 14.1591 14.4382 14.4361 12.7195 14.4361ZM13.8807 15.6293V19.7734H0.926136V15.6293H13.8807Z" fill="#FF0F0F"/>
</svg>
