<svg width="68" height="68" viewBox="0 0 68 68" fill="none" xmlns="http://www.w3.org/2000/svg">
<path d="M0 17.5564H7.25788V9.19855H60.7421V17.5564H68V0H0V17.5564ZM37.702 68H30.298V65.4778C30.298 64.4393 30.0057 63.648 29.4212 63.0545C28.8367 62.5105 27.9599 62.2138 26.7908 62.2138H11.8367C7.93983 62.2138 5.01719 61.1258 3.02006 58.9993C1.02292 56.8727 0 53.7076 0 49.6029V45.8938H7.25788V47.4269C7.25788 49.3062 7.74499 50.6909 8.67049 51.5811C9.59599 52.4713 10.9599 52.9658 12.7622 52.9658H26.5473C28.788 52.9658 30.4441 53.312 31.5645 53.9549C32.6848 54.5978 33.4642 55.7353 33.9513 57.2189C34.4384 55.6858 35.2178 54.5978 36.3381 53.9549C37.4585 53.312 39.1146 52.9658 41.3553 52.9658H55.1404C56.9427 52.9658 58.3066 52.5207 59.2321 51.5811C60.1576 50.6909 60.6447 49.3062 60.6447 47.4269V45.8938H67.9026V49.6029C67.9026 53.7571 66.8797 56.8727 64.8825 58.9993C62.8854 61.1258 59.914 62.2138 56.0659 62.2138H41.1117C39.9427 62.2138 39.0659 62.5105 38.4814 63.0545C37.8969 63.5985 37.6046 64.4393 37.6046 65.4778V68H37.702ZM25.8166 30.6618C25.8166 32.3927 25.2808 33.8269 24.1605 34.9644C23.0401 36.1018 21.5788 36.6458 19.8252 36.6458C19.0458 36.6458 18.2178 36.5469 17.3897 36.2996C16.5616 36.1018 15.2464 35.6073 13.5903 34.9149L3.36103 31.1564V25.1724L14.467 28.1396C14.9054 27.0516 15.5874 26.2109 16.5129 25.6175C17.4384 25.024 18.5587 24.6778 19.8252 24.6778C21.6275 24.6778 23.0888 25.2218 24.1605 26.3593C25.2808 27.4967 25.8166 28.9309 25.8166 30.6124V30.6618ZM41.4527 30.6124C41.4527 28.9309 42.0373 27.4967 43.1576 26.3098C44.2779 25.1229 45.7393 24.5295 47.4928 24.5295C49.2951 24.5295 50.7565 25.1229 51.8281 26.2604C52.9484 27.3978 53.4842 28.832 53.4842 30.5629C53.4842 32.2938 52.9484 33.728 51.8281 34.8655C50.7077 36.0029 49.2464 36.5964 47.4928 36.5964C45.7393 36.5964 44.3266 36.0029 43.1576 34.816C42.0373 33.6291 41.4527 32.1949 41.4527 30.5629V30.6124Z" fill="#ED2E38"/>
</svg>
