<svg width="30" height="30" viewBox="0 0 30 30" fill="none" xmlns="http://www.w3.org/2000/svg">
<path fill-rule="evenodd" clip-rule="evenodd" d="M3.18695 3.18695C1.25049 5.11195 1.25049 8.22861 1.25049 14.4505V15.5505C1.25049 21.7724 1.25049 24.889 3.18695 26.814C5.11195 28.7505 8.22861 28.7505 14.4505 28.7505H15.5505C21.7724 28.7505 24.889 28.7505 26.814 26.814C28.7505 24.889 28.7505 21.7724 28.7505 15.5505V14.4505C28.7505 8.22861 28.7505 5.11195 26.814 3.18695C24.889 1.25049 21.7724 1.25049 15.5505 1.25049H14.4505C8.22861 1.25049 5.11195 1.25049 3.18695 3.18695ZM5.8931 9.61524C6.04205 16.7652 9.61706 21.0621 15.8848 21.0621H16.24V16.9715C17.3455 17.1107 18.3854 17.5731 19.2293 18.3008C20.0731 19.0285 20.6834 19.9891 20.9837 21.0621H24.2379C23.9034 19.8267 23.3107 18.6763 22.4989 17.6867C21.6871 16.6972 20.6747 15.891 19.5285 15.3215C20.5554 14.6982 21.4425 13.8697 22.1346 12.8878C22.8266 11.906 23.3086 10.7919 23.5504 9.61524H20.5941C19.9525 11.884 18.0504 13.9465 16.24 14.1413V9.61524H13.2837V17.5444C11.4504 17.0861 9.1358 14.8632 9.03268 9.61524H5.8931Z" fill="#ED2E38"/>
</svg>
