<svg width="29" height="58" viewBox="0 0 29 58" fill="none" xmlns="http://www.w3.org/2000/svg">
<path d="M-29 14.9745H-22.8095V7.84582H22.8095V14.9745H29V0H-29V14.9745ZM3.15759 58H-3.15759V55.8487C-3.15759 54.9629 -3.40688 54.288 -3.90544 53.7818C-4.40401 53.3178 -5.15186 53.0647 -6.149 53.0647H-18.904C-22.2278 53.0647 -24.7206 52.1367 -26.4241 50.3229C-28.1275 48.5091 -29 45.8095 -29 42.3084V39.1447H-22.8095V40.4524C-22.8095 42.0553 -22.394 43.2364 -21.6046 43.9956C-20.8152 44.7549 -19.6519 45.1767 -18.1146 45.1767H-6.35673C-4.44556 45.1767 -3.03295 45.472 -2.07736 46.0204C-1.12177 46.5687 -0.45702 47.5389 -0.0415478 48.8044C0.373926 47.4967 1.03868 46.5687 1.99427 46.0204C2.94986 45.472 4.36246 45.1767 6.27364 45.1767H18.0315C19.5688 45.1767 20.7321 44.7971 21.5215 43.9956C22.3109 43.2364 22.7264 42.0553 22.7264 40.4524V39.1447H28.9169V42.3084C28.9169 45.8516 28.0444 48.5091 26.341 50.3229C24.6375 52.1367 22.1032 53.0647 18.8209 53.0647H6.0659C5.06877 53.0647 4.32092 53.3178 3.82235 53.7818C3.32378 54.2458 3.0745 54.9629 3.0745 55.8487V58H3.15759ZM-6.97994 26.1527C-6.97994 27.6291 -7.43696 28.8524 -8.39255 29.8225C-9.34814 30.7927 -10.5946 31.2567 -12.0903 31.2567C-12.755 31.2567 -13.4613 31.1724 -14.1676 30.9615C-14.8739 30.7927 -15.9957 30.3709 -17.4083 29.7804L-26.1332 26.5745V21.4705L-16.6605 24.0015C-16.2865 23.0735 -15.7049 22.3564 -14.9155 21.8502C-14.1261 21.344 -13.1705 21.0487 -12.0903 21.0487C-10.553 21.0487 -9.30659 21.5127 -8.39255 22.4829C-7.43696 23.4531 -6.97994 24.6764 -6.97994 26.1105V26.1527ZM6.35674 26.1105C6.35674 24.6764 6.8553 23.4531 7.81089 22.4407C8.76648 21.4284 10.0129 20.9222 11.5086 20.9222C13.0458 20.9222 14.2923 21.4284 15.2063 22.3985C16.1619 23.3687 16.6189 24.592 16.6189 26.0684C16.6189 27.5447 16.1619 28.768 15.2063 29.7382C14.2507 30.7084 13.0043 31.2145 11.5086 31.2145C10.0129 31.2145 8.80802 30.7084 7.81089 29.696C6.8553 28.6836 6.35674 27.4604 6.35674 26.0684V26.1105Z" fill="white"/>
</svg>
