<svg width="40" height="38" viewBox="0 0 40 38" fill="none" xmlns="http://www.w3.org/2000/svg">
<path d="M0 9.81091H4.26934V5.14036H35.7307V9.81091H40V0H0V9.81091ZM22.1777 38H17.8223V36.5905C17.8223 36.0102 17.6504 35.568 17.3066 35.2364C16.9628 34.9324 16.447 34.7665 15.7593 34.7665H6.96275C4.67049 34.7665 2.95129 34.1585 1.7765 32.9702C0.601719 31.7818 0 30.0131 0 27.7193V25.6465H4.26934V26.5033C4.26934 27.5535 4.55587 28.3273 5.10029 28.8247C5.6447 29.3222 6.44699 29.5985 7.50716 29.5985H15.616C16.9341 29.5985 17.9083 29.792 18.5673 30.1513C19.2264 30.5105 19.6848 31.1462 19.9713 31.9753C20.2579 31.1185 20.7163 30.5105 21.3754 30.1513C22.0344 29.792 23.0086 29.5985 24.3266 29.5985H32.4355C33.4957 29.5985 34.298 29.3498 34.8424 28.8247C35.3868 28.3273 35.6734 27.5535 35.6734 26.5033V25.6465H39.9427V27.7193C39.9427 30.0407 39.341 31.7818 38.1662 32.9702C36.9914 34.1585 35.2436 34.7665 32.9799 34.7665H24.1834C23.4957 34.7665 22.9799 34.9324 22.6361 35.2364C22.2923 35.5404 22.1203 36.0102 22.1203 36.5905V38H22.1777ZM15.1862 17.1345C15.1862 18.1018 14.8711 18.9033 14.212 19.5389C13.553 20.1745 12.6934 20.4785 11.6619 20.4785C11.2034 20.4785 10.7163 20.4233 10.2292 20.2851C9.74212 20.1745 8.96848 19.8982 7.99427 19.5113L1.97708 17.4109V14.0669L8.51003 15.7251C8.76791 15.1171 9.16905 14.6473 9.71347 14.3156C10.2579 13.984 10.9169 13.7905 11.6619 13.7905C12.7221 13.7905 13.5817 14.0945 14.212 14.7302C14.8711 15.3658 15.1862 16.1673 15.1862 17.1069V17.1345ZM24.384 17.1069C24.384 16.1673 24.7278 15.3658 25.3868 14.7025C26.0458 14.0393 26.9054 13.7076 27.937 13.7076C28.9971 13.7076 29.8567 14.0393 30.4871 14.6749C31.1461 15.3105 31.4613 16.112 31.4613 17.0793C31.4613 18.0465 31.1461 18.848 30.4871 19.4836C29.8281 20.1193 28.9685 20.4509 27.937 20.4509C26.9054 20.4509 26.0745 20.1193 25.3868 19.456C24.7278 18.7927 24.384 17.9913 24.384 17.0793V17.1069Z" fill="white"/>
</svg>
